<svg xmlns="http://www.w3.org/2000/svg" xmlns:xlink="http://www.w3.org/1999/xlink" width="171" zoomAndPan="magnify" viewBox="0 0 128.25 56.999997" height="76" preserveAspectRatio="xMidYMid meet" version="1.0"><defs><clipPath id="730124a1bd"><path d="M 0 0.164062 L 58.160156 0.164062 L 58.160156 56.832031 L 0 56.832031 Z M 0 0.164062 " clip-rule="nonzero"/></clipPath><clipPath id="6d7fac296e"><path d="M 91.929688 25.867188 L 126.972656 25.867188 L 126.972656 56.4375 L 91.929688 56.4375 Z M 91.929688 25.867188 " clip-rule="nonzero"/></clipPath><clipPath id="7078707fd2"><path d="M 58.503906 24.324219 L 92 24.324219 L 92 56.386719 L 58.503906 56.386719 Z M 58.503906 24.324219 " clip-rule="nonzero"/></clipPath></defs><g clip-path="url(#730124a1bd)"><path fill="#000000" d="M 38.691406 56.507812 C 33.007812 56.507812 27.019531 55.101562 21.976562 52.320312 C 21.363281 51.984375 20.9375 51.402344 20.8125 50.761719 L 26.46875 50.761719 C 28.210938 50.761719 28.210938 48.132812 26.46875 48.132812 C 22.371094 48.132812 18.277344 48.132812 14.179688 48.132812 C 12.4375 48.132812 12.4375 45.503906 14.179688 45.503906 L 22.679688 45.503906 C 23.105469 45.441406 23.625 44.894531 23.625 44.25 C 23.625 43.515625 23.042969 42.9375 22.3125 42.9375 L 15.34375 42.9375 C 13.601562 42.9375 13.601562 40.308594 15.34375 40.308594 L 22.984375 40.308594 C 23.503906 40.277344 24.023438 40.429688 24.480469 40.765625 C 28.914062 43.976562 33.3125 46.023438 38.90625 46.023438 C 42.207031 46.023438 45.84375 45.105469 46.578125 42.082031 L 40.066406 42.082031 C 38.324219 42.082031 38.324219 39.453125 40.066406 39.453125 L 46.578125 39.453125 C 48.199219 39.238281 48.046875 36.824219 46.394531 36.824219 C 41.964844 36.824219 37.5625 36.824219 33.128906 36.824219 C 31.386719 36.824219 31.386719 34.195312 33.128906 34.195312 C 34.660156 34.195312 36.15625 34.195312 37.683594 34.195312 C 39.425781 34.195312 39.425781 31.566406 37.683594 31.566406 C 31.722656 31.566406 25.765625 31.566406 19.804688 31.566406 C 18.0625 31.566406 18.0625 28.9375 19.804688 28.9375 L 29.800781 28.9375 C 31.542969 28.9375 31.542969 26.308594 29.800781 26.308594 C 25.550781 26.308594 21.300781 26.308594 17.054688 26.308594 C 15.3125 26.308594 15.3125 23.683594 17.054688 23.683594 L 24.328125 23.683594 C 26.070312 23.683594 26.070312 21.054688 24.328125 21.054688 L 10.851562 21.054688 C 9.109375 21.054688 9.109375 18.425781 10.851562 18.425781 L 19.101562 18.425781 C 20.539062 18.300781 20.597656 15.828125 18.886719 15.828125 L 16.625 15.828125 C 14.882812 15.828125 14.882812 13.199219 16.625 13.199219 L 22.890625 13.199219 C 23.351562 13.136719 23.898438 12.585938 23.898438 11.914062 C 23.898438 11.273438 23.410156 10.722656 22.800781 10.632812 L 15.648438 10.632812 C 13.90625 10.632812 13.90625 8.003906 15.648438 8.003906 L 26.835938 8.003906 C 28.546875 8.003906 28.515625 5.527344 27.046875 5.40625 L 19.589844 5.40625 C 17.847656 5.40625 17.847656 2.777344 19.589844 2.777344 L 27.199219 2.777344 C 27.78125 2.5 28.394531 2.289062 29.035156 2.074219 C 34.71875 0.179688 42.175781 0.757812 47.648438 2.683594 C 50.246094 3.601562 52.660156 4.855469 54.921875 6.382812 C 55.992188 7.117188 56.265625 8.582031 55.53125 9.652344 L 51.925781 14.878906 C 51.222656 15.917969 49.816406 16.195312 48.75 15.550781 C 44.929688 13.199219 40.925781 11.425781 36.523438 11.425781 C 32.855469 11.425781 29.554688 12.742188 29.554688 16.316406 C 29.554688 19.707031 32.152344 20.808594 35.484375 21.816406 C 45.722656 24.933594 58.496094 26.402344 58.496094 39.695312 C 58.496094 51.1875 49.480469 56.507812 38.691406 56.507812 Z M 34.445312 39.390625 L 36.554688 39.390625 C 38.296875 39.390625 38.296875 42.019531 36.554688 42.019531 L 34.445312 42.019531 C 32.734375 42.019531 32.734375 39.390625 34.445312 39.390625 Z M 1.742188 7.878906 C 2.871094 7.878906 4.738281 7.574219 4.738281 9.195312 C 4.738281 10.816406 2.871094 10.507812 1.742188 10.507812 C 0 10.507812 0 7.878906 1.742188 7.878906 Z M 6.96875 7.878906 L 11.949219 7.878906 C 13.691406 7.878906 13.691406 10.507812 11.949219 10.507812 L 6.96875 10.507812 C 5.226562 10.507812 5.226562 7.878906 6.96875 7.878906 Z M 23.898438 34.132812 L 27.140625 34.132812 C 28.882812 34.132812 28.882812 36.761719 27.140625 36.761719 L 23.898438 36.761719 C 22.160156 36.761719 22.160156 34.132812 23.898438 34.132812 Z M 14.363281 2.65625 L 16.320312 2.65625 C 18.0625 2.65625 18.0625 5.28125 16.320312 5.28125 L 14.363281 5.28125 C 12.621094 5.28125 12.621094 2.65625 14.363281 2.65625 Z M 11.828125 23.589844 L 13.691406 23.589844 C 15.433594 23.589844 15.433594 26.21875 13.691406 26.21875 L 11.828125 26.21875 C 10.085938 26.25 10.085938 23.589844 11.828125 23.589844 Z M 2.351562 18.332031 L 7.457031 18.332031 C 9.199219 18.332031 9.199219 20.960938 7.457031 20.960938 L 2.351562 20.960938 C 0.609375 20.960938 0.609375 18.332031 2.351562 18.332031 Z M 9.167969 45.503906 C 10.300781 45.503906 12.195312 45.199219 12.195312 46.816406 C 12.195312 48.4375 10.332031 48.132812 9.167969 48.132812 C 7.425781 48.132812 7.425781 45.503906 9.167969 45.503906 Z M 9.167969 45.503906 " fill-opacity="1" fill-rule="evenodd"/></g><g clip-path="url(#6d7fac296e)"><path fill="#000000" d="M 115.042969 56.484375 C 113.515625 56.484375 112.039062 56.28125 110.65625 55.875 C 110.527344 55.839844 110.453125 55.746094 110.417969 55.636719 C 110.398438 55.507812 110.4375 55.398438 110.527344 55.304688 C 110.675781 55.175781 110.769531 54.992188 110.769531 54.769531 C 110.769531 54.382812 110.453125 54.050781 110.050781 54.050781 L 103.429688 54.050781 C 103.042969 54.050781 102.710938 53.738281 102.710938 53.332031 C 102.710938 52.945312 103.027344 52.613281 103.429688 52.613281 L 105.53125 52.613281 C 105.917969 52.613281 106.25 52.300781 106.25 51.894531 C 106.25 51.507812 105.9375 51.175781 105.53125 51.175781 L 103.488281 51.175781 C 103.488281 51.175781 103.46875 51.175781 103.46875 51.175781 L 101.015625 51.175781 C 100.628906 51.175781 100.296875 50.863281 100.296875 50.457031 C 100.296875 50.070312 100.609375 49.738281 101.015625 49.738281 L 102.953125 49.738281 C 103.339844 49.738281 103.671875 49.425781 103.671875 49.019531 C 103.671875 48.632812 103.359375 48.300781 102.953125 48.300781 L 99.964844 48.300781 C 99.578125 48.300781 99.246094 47.988281 99.246094 47.582031 C 99.246094 47.195312 99.558594 46.863281 99.964844 46.863281 L 105.515625 46.863281 C 105.902344 46.863281 106.234375 46.546875 106.234375 46.144531 C 106.234375 45.757812 105.917969 45.425781 105.515625 45.425781 L 98.324219 45.425781 C 97.9375 45.425781 97.605469 45.109375 97.605469 44.707031 C 97.605469 44.316406 97.917969 43.988281 98.324219 43.988281 L 100.757812 43.988281 C 101.144531 43.988281 101.476562 43.671875 101.476562 43.265625 C 101.476562 42.878906 101.164062 42.546875 100.757812 42.546875 L 98.195312 42.546875 C 97.808594 42.546875 97.476562 42.234375 97.476562 41.828125 C 97.476562 41.441406 97.789062 41.109375 98.195312 41.109375 L 103.097656 41.109375 C 103.488281 41.109375 103.816406 40.796875 103.816406 40.390625 C 103.816406 40.003906 103.503906 39.671875 103.097656 39.671875 L 99.542969 39.671875 C 99.15625 39.671875 98.824219 39.359375 98.824219 38.953125 C 98.824219 38.566406 99.136719 38.234375 99.542969 38.234375 L 100.90625 38.234375 C 101.292969 38.234375 101.625 37.921875 101.625 37.515625 C 101.625 37.128906 101.3125 36.796875 100.90625 36.796875 L 98.105469 36.796875 C 97.714844 36.796875 97.386719 36.484375 97.386719 36.078125 C 97.386719 35.691406 97.699219 35.359375 98.105469 35.359375 L 105.828125 35.359375 C 106.214844 35.359375 106.546875 35.046875 106.546875 34.640625 C 106.546875 34.289062 106.289062 33.996094 105.957031 33.941406 L 103.761719 33.941406 C 103.726562 33.941406 103.6875 33.941406 103.632812 33.921875 L 103.171875 33.921875 C 103.136719 33.921875 103.097656 33.941406 103.042969 33.941406 L 97.125 33.941406 C 96.738281 33.941406 96.40625 33.625 96.40625 33.222656 C 96.40625 32.832031 96.722656 32.5 97.125 32.5 L 103.042969 32.5 C 103.097656 32.5 103.15625 32.5 103.210938 32.519531 L 103.578125 32.519531 C 103.632812 32.5 103.6875 32.5 103.746094 32.5 L 104.09375 32.5 C 104.410156 32.429688 104.628906 32.152344 104.628906 31.800781 C 104.628906 31.453125 104.371094 31.15625 104.039062 31.101562 L 103.226562 31.101562 C 102.839844 31.101562 102.507812 30.789062 102.507812 30.382812 C 102.507812 29.996094 102.824219 29.664062 103.226562 29.664062 L 108.8125 29.664062 C 109.199219 29.664062 109.53125 29.351562 109.53125 28.945312 C 109.53125 28.59375 109.273438 28.300781 108.941406 28.242188 L 105.367188 28.242188 C 104.980469 28.242188 104.648438 27.929688 104.648438 27.523438 C 104.648438 27.136719 104.960938 26.804688 105.367188 26.804688 L 109.828125 26.804688 C 111.503906 26.199219 113.332031 25.902344 115.300781 25.902344 C 116.667969 25.902344 117.921875 26.011719 119.0625 26.234375 C 120.1875 26.457031 121.21875 26.769531 122.140625 27.15625 C 123.0625 27.542969 123.910156 28.023438 124.703125 28.574219 C 125.40625 29.074219 126.050781 29.609375 126.65625 30.199219 C 126.789062 30.328125 126.789062 30.53125 126.675781 30.660156 L 122.988281 34.898438 C 122.933594 34.972656 122.859375 35.007812 122.769531 35.007812 C 122.675781 35.007812 122.601562 34.992188 122.527344 34.933594 C 121.460938 34.011719 120.371094 33.277344 119.285156 32.722656 C 118.105469 32.132812 116.757812 31.839844 115.285156 31.839844 C 114.050781 31.839844 112.90625 32.078125 111.875 32.558594 C 110.824219 33.035156 109.921875 33.683594 109.164062 34.53125 C 108.410156 35.378906 107.820312 36.335938 107.394531 37.441406 C 106.96875 38.546875 106.769531 39.726562 106.769531 40.980469 L 106.769531 41.074219 C 106.769531 42.328125 106.96875 43.527344 107.394531 44.632812 C 107.820312 45.757812 108.390625 46.734375 109.128906 47.5625 C 109.863281 48.410156 110.769531 49.074219 111.820312 49.554688 C 112.871094 50.050781 114.011719 50.289062 115.285156 50.289062 C 116.960938 50.289062 118.382812 49.976562 119.542969 49.367188 C 120.628906 48.796875 121.699219 48.023438 122.769531 47.066406 C 122.898438 46.9375 123.101562 46.953125 123.230469 47.082031 L 126.878906 50.769531 C 127.007812 50.898438 127.007812 51.101562 126.878906 51.230469 C 126.195312 51.949219 125.476562 52.59375 124.757812 53.167969 C 123.949219 53.8125 123.0625 54.363281 122.105469 54.824219 C 121.144531 55.285156 120.078125 55.636719 118.933594 55.875 C 117.753906 56.375 116.464844 56.484375 115.042969 56.484375 Z M 93.21875 39.820312 L 93.476562 39.820312 C 93.863281 39.820312 94.195312 40.132812 94.195312 40.539062 C 94.195312 40.925781 93.882812 41.257812 93.476562 41.257812 L 93.21875 41.257812 C 92.832031 41.257812 92.5 40.945312 92.5 40.539062 C 92.519531 40.132812 92.832031 39.820312 93.21875 39.820312 Z M 95.484375 39.820312 L 96.535156 39.820312 C 96.925781 39.820312 97.253906 40.132812 97.253906 40.539062 C 97.253906 40.925781 96.941406 41.257812 96.535156 41.257812 L 95.484375 41.257812 C 95.097656 41.257812 94.765625 40.945312 94.765625 40.539062 C 94.765625 40.132812 95.082031 39.820312 95.484375 39.820312 Z M 95.6875 29.867188 L 96.609375 29.867188 C 96.996094 29.867188 97.328125 30.179688 97.328125 30.585938 C 97.328125 30.972656 97.015625 31.304688 96.609375 31.304688 L 95.6875 31.304688 C 95.300781 31.304688 94.96875 30.992188 94.96875 30.585938 C 94.96875 30.199219 95.300781 29.867188 95.6875 29.867188 Z M 98.527344 29.867188 L 101.21875 29.867188 C 101.605469 29.867188 101.9375 30.179688 101.9375 30.585938 C 101.9375 30.972656 101.625 31.304688 101.21875 31.304688 L 98.527344 31.304688 C 98.140625 31.304688 97.808594 30.992188 97.808594 30.585938 C 97.808594 30.199219 98.121094 29.867188 98.527344 29.867188 Z M 99.945312 52.648438 L 100.757812 52.648438 C 101.144531 52.648438 101.476562 52.964844 101.476562 53.371094 C 101.476562 53.757812 101.164062 54.089844 100.757812 54.089844 L 99.945312 54.089844 C 99.558594 54.089844 99.226562 53.773438 99.226562 53.371094 C 99.226562 52.964844 99.558594 52.648438 99.945312 52.648438 Z M 94.289062 44.097656 L 96.039062 44.097656 C 96.425781 44.097656 96.757812 44.410156 96.757812 44.816406 C 96.757812 45.203125 96.445312 45.535156 96.039062 45.535156 L 94.289062 45.535156 C 93.902344 45.535156 93.570312 45.222656 93.570312 44.816406 C 93.570312 44.410156 93.902344 44.097656 94.289062 44.097656 Z M 102.527344 27.027344 L 103.578125 27.027344 C 103.964844 27.027344 104.296875 27.339844 104.296875 27.746094 C 104.296875 28.132812 103.984375 28.464844 103.578125 28.464844 L 102.527344 28.464844 C 102.140625 28.464844 101.808594 28.152344 101.808594 27.746094 C 101.808594 27.359375 102.140625 27.027344 102.527344 27.027344 Z M 92.648438 35.523438 L 95.414062 35.523438 C 95.800781 35.523438 96.132812 35.839844 96.132812 36.242188 C 96.132812 36.632812 95.816406 36.964844 95.414062 36.964844 L 92.648438 36.964844 C 92.242188 36.964844 91.929688 36.632812 91.929688 36.242188 C 91.929688 35.855469 92.242188 35.523438 92.648438 35.523438 Z M 94.804688 46.9375 L 95.726562 46.9375 C 96.113281 46.9375 96.445312 47.25 96.445312 47.65625 C 96.445312 48.042969 96.132812 48.375 95.726562 48.375 L 94.804688 48.375 C 94.417969 48.375 94.085938 48.058594 94.085938 47.65625 C 94.085938 47.269531 94.398438 46.9375 94.804688 46.9375 Z M 94.804688 46.9375 " fill-opacity="1" fill-rule="evenodd"/></g><g clip-path="url(#7078707fd2)"><path fill="#000000" d="M 80.605469 56.507812 C 77.359375 56.507812 73.9375 55.707031 71.054688 54.117188 C 70.707031 53.925781 70.460938 53.59375 70.394531 53.226562 L 73.621094 53.226562 C 74.617188 53.226562 74.617188 51.726562 73.621094 51.726562 C 71.28125 51.726562 68.945312 51.726562 66.605469 51.726562 C 65.609375 51.726562 65.609375 50.222656 66.605469 50.222656 L 71.457031 50.222656 C 71.703125 50.1875 72 49.875 72 49.507812 C 72 49.089844 71.667969 48.757812 71.25 48.757812 L 67.269531 48.757812 C 66.273438 48.757812 66.273438 47.253906 67.269531 47.253906 L 71.632812 47.253906 C 71.929688 47.238281 72.226562 47.324219 72.488281 47.519531 C 75.019531 49.351562 77.53125 50.519531 80.726562 50.519531 C 82.613281 50.519531 84.691406 49.996094 85.109375 48.269531 L 81.390625 48.269531 C 80.394531 48.269531 80.394531 46.765625 81.390625 46.765625 L 85.109375 46.765625 C 86.035156 46.644531 85.949219 45.265625 85.003906 45.265625 C 82.472656 45.265625 79.960938 45.265625 77.429688 45.265625 C 76.433594 45.265625 76.433594 43.765625 77.429688 43.765625 C 78.300781 43.765625 79.15625 43.765625 80.03125 43.765625 C 81.023438 43.765625 81.023438 42.261719 80.03125 42.261719 C 76.625 42.261719 73.222656 42.261719 69.816406 42.261719 C 68.820312 42.261719 68.820312 40.761719 69.816406 40.761719 L 75.523438 40.761719 C 76.519531 40.761719 76.519531 39.261719 75.523438 39.261719 C 73.097656 39.261719 70.671875 39.261719 68.246094 39.261719 C 67.25 39.261719 67.25 37.757812 68.246094 37.757812 L 72.398438 37.757812 C 73.394531 37.757812 73.394531 36.257812 72.398438 36.257812 L 64.703125 36.257812 C 63.707031 36.257812 63.707031 34.757812 64.703125 34.757812 L 69.414062 34.757812 C 70.234375 34.6875 70.269531 33.273438 69.292969 33.273438 L 68 33.273438 C 67.007812 33.273438 67.007812 31.769531 68 31.769531 L 71.578125 31.769531 C 71.839844 31.734375 72.15625 31.421875 72.15625 31.039062 C 72.15625 30.671875 71.875 30.355469 71.527344 30.304688 L 67.441406 30.304688 C 66.445312 30.304688 66.445312 28.804688 67.441406 28.804688 L 73.832031 28.804688 C 74.808594 28.804688 74.792969 27.390625 73.953125 27.320312 L 69.695312 27.320312 C 68.699219 27.320312 68.699219 25.816406 69.695312 25.816406 L 74.042969 25.816406 C 74.371094 25.660156 74.722656 25.539062 75.089844 25.417969 C 78.335938 24.332031 82.59375 24.664062 85.71875 25.765625 C 87.203125 26.289062 88.582031 27.003906 89.875 27.878906 C 90.488281 28.296875 90.644531 29.132812 90.222656 29.746094 L 88.164062 32.730469 C 87.761719 33.324219 86.960938 33.480469 86.347656 33.113281 C 84.167969 31.769531 81.878906 30.757812 79.367188 30.757812 C 77.269531 30.757812 75.386719 31.507812 75.386719 33.550781 C 75.386719 35.488281 76.871094 36.117188 78.773438 36.695312 C 84.621094 38.472656 91.917969 39.3125 91.917969 46.90625 C 91.917969 53.46875 86.769531 56.507812 80.605469 56.507812 Z M 78.179688 46.730469 L 79.382812 46.730469 C 80.378906 46.730469 80.378906 48.234375 79.382812 48.234375 L 78.179688 48.234375 C 77.199219 48.234375 77.199219 46.730469 78.179688 46.730469 Z M 59.5 28.734375 C 60.144531 28.734375 61.210938 28.558594 61.210938 29.484375 C 61.210938 30.410156 60.144531 30.234375 59.5 30.234375 C 58.503906 30.234375 58.503906 28.734375 59.5 28.734375 Z M 62.484375 28.734375 L 65.328125 28.734375 C 66.324219 28.734375 66.324219 30.234375 65.328125 30.234375 L 62.484375 30.234375 C 61.488281 30.234375 61.488281 28.734375 62.484375 28.734375 Z M 72.15625 43.730469 L 74.007812 43.730469 C 75 43.730469 75 45.230469 74.007812 45.230469 L 72.15625 45.230469 C 71.160156 45.230469 71.160156 43.730469 72.15625 43.730469 Z M 66.710938 25.746094 L 67.828125 25.746094 C 68.820312 25.746094 68.820312 27.25 67.828125 27.25 L 66.710938 27.25 C 65.714844 27.25 65.714844 25.746094 66.710938 25.746094 Z M 65.261719 37.707031 L 66.324219 37.707031 C 67.320312 37.707031 67.320312 39.207031 66.324219 39.207031 L 65.261719 39.207031 C 64.265625 39.226562 64.265625 37.707031 65.261719 37.707031 Z M 59.847656 34.703125 L 62.765625 34.703125 C 63.757812 34.703125 63.757812 36.203125 62.765625 36.203125 L 59.847656 36.203125 C 58.851562 36.203125 58.851562 34.703125 59.847656 34.703125 Z M 63.742188 50.222656 C 64.386719 50.222656 65.46875 50.050781 65.46875 50.972656 C 65.46875 51.898438 64.40625 51.726562 63.742188 51.726562 C 62.746094 51.726562 62.746094 50.222656 63.742188 50.222656 Z M 63.742188 50.222656 " fill-opacity="1" fill-rule="evenodd"/></g></svg>